<svg xmlns="http://www.w3.org/2000/svg" viewBox="0 0 122.88 122.88"><defs><style>.cls-1{fill:#e00000;fill-rule:evenodd;}</style></defs><g id="Livello_2" data-name="Livello 2"><g id="Livello_1-2" data-name="Livello 1"><path class="cls-1" d="M61.44,0A61.44,61.44,0,1,1,0,61.44,61.44,61.44,0,0,1,61.44,0ZM81.72,36.23a3.49,3.49,0,1,1,4.93,4.93L66.38,61.44,86.65,81.72a3.49,3.49,0,0,1-4.93,4.93L61.44,66.38,41.16,86.65a3.49,3.49,0,1,1-4.93-4.93L56.5,61.44,36.23,41.16a3.49,3.49,0,1,1,4.93-4.93L61.44,56.5,81.72,36.23Z"/></g></g></svg>