<svg xmlns="http://www.w3.org/2000/svg" viewBox="0 0 122.88 122.88"><defs><style>.cls-1{fill:#02ad06;fill-rule:evenodd;}</style></defs><g id="Livello_2" data-name="Livello 2"><g id="Livello_1-2" data-name="Livello 1"><path class="cls-1" d="M61.44,0A61.44,61.44,0,1,1,0,61.44,61.44,61.44,0,0,1,61.44,0ZM34.11,67.68l0,0a3.85,3.85,0,0,1-.27-5.44l0,0a3.83,3.83,0,0,1,2.67-1.26,3.87,3.87,0,0,1,2.79,1L52.26,73.68,83.35,41.12h0A3.88,3.88,0,0,1,88.84,41h0A3.88,3.88,0,0,1,89,46.47l-33.7,35.3-.07.07a3.89,3.89,0,0,1-5.35.13L34.12,67.69Z"/></g></g></svg>