<svg xmlns="http://www.w3.org/2000/svg" viewBox="0 0 239.53 74.29"><defs><style>.cls-1{fill:#fff;fill-rule:evenodd;}</style></defs><g id="Livello_2" data-name="Livello 2"><g id="Livello_1-2" data-name="Livello 1"><path class="cls-1" d="M62.19,11.37l2.66,3.75a1.09,1.09,0,0,1-.24,1.53h0l-2.07,1.47L58.59,12.6l2.07-1.47a1.1,1.1,0,0,1,1.53.26ZM13,55.11a1.12,1.12,0,1,1,1,2,6.09,6.09,0,0,1-3.34.51,11.89,11.89,0,0,1-2.13-.46,5.93,5.93,0,0,0,.1.87c.1.81.26,1.64.44,2.5a1.15,1.15,0,0,1-.14.83,8.91,8.91,0,0,0-1,3.22,2.63,2.63,0,0,0,.67,2.11,4.73,4.73,0,0,0,2.46,1.11,18.34,18.34,0,0,0,6.27-.21,38.67,38.67,0,0,0,7.17-2,19.23,19.23,0,0,0,5-2.72A8.87,8.87,0,0,0,32,58.68c.11-.31.21-.61.26-.73l.15-.41c.65-1.78,1.77-4.84,3.23-6A1.14,1.14,0,0,1,37,53.36c-.92.68-1.87,3.38-2.48,4.94l-.14.41c-.13.33-.19.51-.26.69a10.69,10.69,0,0,1-3.15,5.28,21.42,21.42,0,0,1-5.61,3c-.49.19-1,.37-1.46.53a18.14,18.14,0,0,1-.08,2.21,18.23,18.23,0,0,1-.55,3,1.13,1.13,0,1,1-2.18-.6h0a15,15,0,0,0,.49-2.66c.05-.43.07-.88.08-1.32-1.34.37-2.65.66-3.89.88a20.06,20.06,0,0,1-7.08.21A6.73,6.73,0,0,1,7,68.22,4.73,4.73,0,0,1,5.7,64.4a10.8,10.8,0,0,1,1.11-3.81q-.22-1.11-.39-2.31a25.68,25.68,0,0,1-.23-2.63v-.21C6,53.74,6,52.08,6,50.4V50l-2.6-.15h0a3.53,3.53,0,0,1-1.81-.56A3.14,3.14,0,0,1,.42,48,3.75,3.75,0,0,1,0,46.23,5.7,5.7,0,0,1,1,43.3l2.79-5.69C5.13,34.82,5.12,34.48,5.06,33c0-.66-.06-1.51,0-2.77a20.56,20.56,0,0,1,.54-4.29,14.68,14.68,0,0,1,.94-2.73L1.46,21a1.11,1.11,0,0,1-.61-1.46v0A2.39,2.39,0,0,1,1,19.3H1C13.08,2.82,26.75-1.73,38.31.55a32.08,32.08,0,0,1,17.35,10l.26.28-.09.06L54.06,12.1,54,12a29.78,29.78,0,0,0-16.1-9.26c-10.5-2.07-23,2-34.23,16.74L8.5,21.6l.19.09a1.13,1.13,0,0,1,.38,1.55,11.59,11.59,0,0,0-1.28,3.21,19.12,19.12,0,0,0-.48,3.84c0,1.21,0,2,0,2.61.07,1.91.09,2.42-1.53,5.7L3,44.31l-.09.17a3.4,3.4,0,0,0-.65,1.81,1.58,1.58,0,0,0,.17.71,1,1,0,0,0,.36.41,1.23,1.23,0,0,0,.64.19h.09l3.23.19a.88.88,0,0,1,.33-.06h.11l3,.26A1.12,1.12,0,0,1,10,50.23H9.91l-1.68-.1v.24c0,1.45,0,2.91.16,4.37a10.72,10.72,0,0,0,2.5.66A4,4,0,0,0,13,55.11Zm49.5-33.33a31.85,31.85,0,0,1,1.67,6.59C65.72,39.22,61.37,50.81,48,58.68a1.11,1.11,0,0,1-.36.13,42.62,42.62,0,0,0,.3,4.79A37.16,37.16,0,0,0,50,72.23a1.13,1.13,0,0,1-.62,1.47,1.12,1.12,0,0,1-1.46-.62l0-.06a39.48,39.48,0,0,1-2.24-9.15,45.89,45.89,0,0,1,0-10.28,1.12,1.12,0,0,1,2.23.23c-.08.82-.15,1.63-.18,2.42C59.49,48.94,63.34,38.47,62,28.7a29.38,29.38,0,0,0-1.35-5.55ZM33.77,15.36a4.84,4.84,0,0,1,6.45-1.81,5.39,5.39,0,0,1,2.34,2.24A4.74,4.74,0,0,1,43,16.94a5.16,5.16,0,0,1,1.74.28,5.83,5.83,0,0,1,1.26.6l-2.15,1.54a2.55,2.55,0,0,0-.91-.14h0a5.25,5.25,0,0,1-1,1.86,1.1,1.1,0,1,1-1.76-1.32l.08-.1a2.42,2.42,0,0,0,.4-2.82,3.3,3.3,0,0,0-1.39-1.33,2.8,2.8,0,0,0-1.82-.27,3.17,3.17,0,0,0-2.17,2.09.54.54,0,0,1,0,.18V40.24a1,1,0,0,1,0,.17c.32,1.93,1.15,2.85,2.09,3.11a3.25,3.25,0,0,0,2.66-.6,2.92,2.92,0,0,0,1.33-2.23c0-1-.7-2.09-2.63-3.07a1.11,1.11,0,1,1,1-2h0a6.51,6.51,0,0,1,3.63,3.75,3.74,3.74,0,0,0,1.82-1.46A5.06,5.06,0,0,0,46,34.43a1.16,1.16,0,0,1,.55-1.21,6,6,0,0,0,1.86-1.6A3.74,3.74,0,0,0,49,30.47l.6-.07a3,3,0,0,0,1.55-.54l.29-.21v.06A5.77,5.77,0,0,1,50.3,33a7.87,7.87,0,0,1-1.92,1.81,7.26,7.26,0,0,1-1.25,4.45,5.88,5.88,0,0,1-3.69,2.49,5.7,5.7,0,0,1-6.66,3.92,4.6,4.6,0,0,1-2.88-2.42,5,5,0,0,1-3.3,2.49,5.24,5.24,0,0,1-4.2-1.06,5.1,5.1,0,0,1-1.88-2.9,5.17,5.17,0,0,1-1.46-.28,6.83,6.83,0,0,1-4.46-5.37A6.23,6.23,0,0,1,18.66,34a7.45,7.45,0,0,1-1.32-1.59,6,6,0,0,1-.94-3.26,5.78,5.78,0,0,1,1.18-3.42,8,8,0,0,1,1.86-1.82q0-.3,0-.6A7.14,7.14,0,0,1,21,19,5.64,5.64,0,0,1,24.53,17h0a5.15,5.15,0,0,1,.16-.56A5.38,5.38,0,0,1,27,13.68a5.07,5.07,0,0,1,3.57-.6,4.91,4.91,0,0,1,3.17,2.28ZM24.63,39.52a7,7,0,0,1,3.79-3.88,1.11,1.11,0,0,1,1.07,1.94l-.06,0c-2,1-2.81,2.22-2.81,3.26A2.72,2.72,0,0,0,27.77,43a3,3,0,0,0,2.42.6c1-.21,2-1.16,2.54-3.24V18.46c-.52-2.06-1.51-3-2.54-3.22a2.86,2.86,0,0,0-2,.37,3.09,3.09,0,0,0-1.36,1.56,2.64,2.64,0,0,0,.94,2.9,1.1,1.1,0,0,1-1.49,1.61,5.51,5.51,0,0,1-1.6-2.42,3.48,3.48,0,0,0-1.82,1.21,5,5,0,0,0-1.07,2.93,5.15,5.15,0,0,0,.05,1h0a1.16,1.16,0,0,1-.53,1.13,6.33,6.33,0,0,0-1.82,1.6,3.62,3.62,0,0,0-.74,2.1,3.94,3.94,0,0,0,.6,2,5.2,5.2,0,0,0,1.28,1.44A1.17,1.17,0,0,1,21.05,34a3.84,3.84,0,0,0-.18,1.84,4.27,4.27,0,0,0,1,2.21,4.4,4.4,0,0,0,1.9,1.31,3,3,0,0,0,.83.17ZM24.89,24a1.1,1.1,0,0,1,1.56,0,1.09,1.09,0,0,1,0,1.55,5,5,0,0,0-1.49,3.36,5.57,5.57,0,0,0,1.21,3.63A1.09,1.09,0,0,1,26,34.07a1.1,1.1,0,0,1-1.55-.17,7.64,7.64,0,0,1-1.7-5.1A7.12,7.12,0,0,1,24.88,24Zm24.55,3.4-4,.55c-3.17.42-3.26,1-1.95-1.72l2.06-4.35h0l12-8.54,4,5.53L49.44,27.38ZM46.18,22.8l2.59,3.63-2.66.35c-2.08.28-2.14.69-1.28-1.13Zm39.3,24.7H79.63l8-21h6l8,21H95.68l-1.35-3.75h-7.5Zm2.7-7.65H93l-2.4-7.05Zm23.7-3.9a9.52,9.52,0,0,0-3.9.9V47.5h-5.25V31.6h4.65l.3,1.95a8.14,8.14,0,0,1,5.4-2.25h1.35V36ZM127.63,47.5c-1.94.19-3.84.3-5.7.3a4.23,4.23,0,0,1-4.5-4.5V35.65h-1.8v-4h1.8L118,28h4.65v3.6h3.75v4h-3.75v6.9a1,1,0,0,0,1,1.05h3.9Zm16.5-.3a102.69,102.69,0,0,1-10.5.6,4.23,4.23,0,0,1-4.5-4.5V36.1a4.4,4.4,0,0,1,4.8-4.8h6a4.42,4.42,0,0,1,4.8,4.8v5.55H134.38v1.2a1,1,0,0,0,1.05,1q3,0,8.7-.45Zm-8.55-12.15a1.06,1.06,0,0,0-1.2,1.2V37.9h5.1V36.25a1.06,1.06,0,0,0-1.2-1.2Zm30.15.75-4.2,7.5h-4.2l-4.2-7.5V47.5h-5.4v-21h5.7l6,11.1,6-11.1h5.7v21h-5.4Zm23.4,11.4a102.69,102.69,0,0,1-10.5.6,4.23,4.23,0,0,1-4.5-4.5V36.1a4.4,4.4,0,0,1,4.8-4.8h6a4.42,4.42,0,0,1,4.8,4.8v5.55H179.38v1.2a1,1,0,0,0,1.05,1q3,0,8.7-.45Zm-8.55-12.15a1.06,1.06,0,0,0-1.2,1.2V37.9h5.1V36.25a1.06,1.06,0,0,0-1.2-1.2Zm20.7.6a12.74,12.74,0,0,0-3.6.6V47.5h-5.25V31.6h4.65l.3,1.5a10.72,10.72,0,0,1,2.89-1.37,9.2,9.2,0,0,1,2.51-.43h1.35a4.23,4.23,0,0,1,4.5,4.5V47.5h-5.25V36.7a1,1,0,0,0-1-1.05ZM222.43,47.5c-1.94.19-3.84.3-5.7.3a4.23,4.23,0,0,1-4.5-4.5V35.65h-1.8v-4h1.8l.6-3.6h4.65v3.6h3.75v4h-3.75v6.9a1,1,0,0,0,1.05,1.05h3.9Zm16.5-.3a102.69,102.69,0,0,1-10.5.6,4.23,4.23,0,0,1-4.5-4.5V36.1a4.4,4.4,0,0,1,4.8-4.8h6a4.42,4.42,0,0,1,4.8,4.8v5.55H229.18v1.2a1,1,0,0,0,1,1q3,0,8.7-.45Zm-8.55-12.15a1.06,1.06,0,0,0-1.2,1.2V37.9h5.1V36.25a1.06,1.06,0,0,0-1.2-1.2Z"/></g></g></svg>